<svg xmlns="http://www.w3.org/2000/svg" width="56" height="56" fill="none"><path style="opacity:1;vector-effect:none;fill:#fff;fill-opacity:1;fill-rule:evenodd;stroke:none;stroke-width:2;stroke-linecap:round;stroke-linejoin:round;stroke-miterlimit:4;stroke-dasharray:none;stroke-dashoffset:0;stroke-opacity:1;paint-order:normal" d="M0 0h56v56H0z"/><path d="M28 8.799a11.924 11.924 0 0 0-11.924 11.924A11.924 11.924 0 0 0 28 32.646a11.924 11.924 0 0 0 11.924-11.923A11.924 11.924 0 0 0 28 8.799zm7.025 24.316A11.924 11.924 0 0 1 28 35.42a11.924 11.924 0 0 1-7.018-2.299A22.312 22.312 0 0 0 5.688 54.273 22.312 22.312 0 0 0 5.772 56h44.465a22.312 22.312 0 0 0 .075-1.727 22.312 22.312 0 0 0-15.288-21.158z" style="opacity:1;vector-effect:none;fill:#c4cad9;fill-opacity:1;fill-rule:evenodd;stroke:none;stroke-width:1.99999988;stroke-linecap:round;stroke-linejoin:round;stroke-miterlimit:4;stroke-dasharray:none;stroke-dashoffset:0;stroke-opacity:1;paint-order:normal"/></svg>